<mxfile host="app.diagrams.net" modified="2024-05-04T04:43:18.483Z" agent="Mozilla/5.0 (Windows NT 10.0; Win64; x64) AppleWebKit/537.36 (KHTML, like Gecko) Chrome/124.0.0.0 Safari/537.36" etag="iUksO3L0ToNFVSxtHTR-" version="24.3.1" type="device">
  <diagram name="Página-1" id="Li4ZA2xVbUQOf7s-OnVN">
    <mxGraphModel dx="1658" dy="614" grid="1" gridSize="10" guides="1" tooltips="1" connect="1" arrows="1" fold="1" page="1" pageScale="1" pageWidth="827" pageHeight="1169" math="0" shadow="0">
      <root>
        <mxCell id="0" />
        <mxCell id="1" parent="0" />
        <mxCell id="87rC7KkqDMifivqr5Y0W-4" value="" style="edgeStyle=orthogonalEdgeStyle;rounded=0;orthogonalLoop=1;jettySize=auto;html=1;" parent="1" source="87rC7KkqDMifivqr5Y0W-1" target="87rC7KkqDMifivqr5Y0W-3" edge="1">
          <mxGeometry relative="1" as="geometry" />
        </mxCell>
        <mxCell id="87rC7KkqDMifivqr5Y0W-1" value="Inicio" style="ellipse;whiteSpace=wrap;html=1;" parent="1" vertex="1">
          <mxGeometry x="90" y="70" width="65" height="60" as="geometry" />
        </mxCell>
        <mxCell id="87rC7KkqDMifivqr5Y0W-2" value="Zonas de temperatura" style="text;html=1;align=center;verticalAlign=middle;whiteSpace=wrap;rounded=0;" parent="1" vertex="1">
          <mxGeometry x="90" y="25" width="60" height="30" as="geometry" />
        </mxCell>
        <mxCell id="Eim88RMwKdRnvBJXF1sW-69" value="" style="edgeStyle=orthogonalEdgeStyle;rounded=0;orthogonalLoop=1;jettySize=auto;html=1;" edge="1" parent="1" source="87rC7KkqDMifivqr5Y0W-3" target="Eim88RMwKdRnvBJXF1sW-68">
          <mxGeometry relative="1" as="geometry" />
        </mxCell>
        <mxCell id="87rC7KkqDMifivqr5Y0W-3" value="&quot;Defina las zonas de temperatura&quot;" style="shape=parallelogram;perimeter=parallelogramPerimeter;whiteSpace=wrap;html=1;fixedSize=1;" parent="1" vertex="1">
          <mxGeometry x="50" y="150" width="140" height="60" as="geometry" />
        </mxCell>
        <mxCell id="Eim88RMwKdRnvBJXF1sW-2" value="" style="edgeStyle=orthogonalEdgeStyle;rounded=0;orthogonalLoop=1;jettySize=auto;html=1;" edge="1" parent="1" source="87rC7KkqDMifivqr5Y0W-16" target="Eim88RMwKdRnvBJXF1sW-1">
          <mxGeometry relative="1" as="geometry" />
        </mxCell>
        <mxCell id="87rC7KkqDMifivqr5Y0W-16" value="Inicio" style="ellipse;whiteSpace=wrap;html=1;" parent="1" vertex="1">
          <mxGeometry x="290" y="70" width="60" height="60" as="geometry" />
        </mxCell>
        <mxCell id="87rC7KkqDMifivqr5Y0W-17" value="Control de Temperatura por zonas" style="text;html=1;align=center;verticalAlign=middle;whiteSpace=wrap;rounded=0;" parent="1" vertex="1">
          <mxGeometry x="290" y="25" width="60" height="30" as="geometry" />
        </mxCell>
        <mxCell id="Eim88RMwKdRnvBJXF1sW-4" value="" style="edgeStyle=orthogonalEdgeStyle;rounded=0;orthogonalLoop=1;jettySize=auto;html=1;" edge="1" parent="1" source="Eim88RMwKdRnvBJXF1sW-1" target="Eim88RMwKdRnvBJXF1sW-3">
          <mxGeometry relative="1" as="geometry" />
        </mxCell>
        <mxCell id="Eim88RMwKdRnvBJXF1sW-1" value="&lt;div&gt;&quot;Seleccionar&amp;nbsp;&lt;/div&gt;&lt;div&gt;zona&quot;&lt;/div&gt;" style="shape=parallelogram;perimeter=parallelogramPerimeter;whiteSpace=wrap;html=1;fixedSize=1;" vertex="1" parent="1">
          <mxGeometry x="262.5" y="155" width="115" height="60" as="geometry" />
        </mxCell>
        <mxCell id="Eim88RMwKdRnvBJXF1sW-6" value="" style="edgeStyle=orthogonalEdgeStyle;rounded=0;orthogonalLoop=1;jettySize=auto;html=1;" edge="1" parent="1" source="Eim88RMwKdRnvBJXF1sW-3" target="Eim88RMwKdRnvBJXF1sW-5">
          <mxGeometry relative="1" as="geometry" />
        </mxCell>
        <mxCell id="Eim88RMwKdRnvBJXF1sW-3" value="zona" style="whiteSpace=wrap;html=1;" vertex="1" parent="1">
          <mxGeometry x="280" y="235" width="80" height="40" as="geometry" />
        </mxCell>
        <mxCell id="Eim88RMwKdRnvBJXF1sW-8" value="" style="edgeStyle=orthogonalEdgeStyle;rounded=0;orthogonalLoop=1;jettySize=auto;html=1;" edge="1" parent="1" source="Eim88RMwKdRnvBJXF1sW-5" target="Eim88RMwKdRnvBJXF1sW-7">
          <mxGeometry relative="1" as="geometry" />
        </mxCell>
        <mxCell id="Eim88RMwKdRnvBJXF1sW-5" value="&quot;Ajuste temperatura deseada entre 15 y 30 grados&quot;" style="shape=parallelogram;perimeter=parallelogramPerimeter;whiteSpace=wrap;html=1;fixedSize=1;" vertex="1" parent="1">
          <mxGeometry x="245" y="300" width="150" height="60" as="geometry" />
        </mxCell>
        <mxCell id="Eim88RMwKdRnvBJXF1sW-130" value="" style="edgeStyle=orthogonalEdgeStyle;rounded=0;orthogonalLoop=1;jettySize=auto;html=1;" edge="1" parent="1" source="Eim88RMwKdRnvBJXF1sW-7" target="Eim88RMwKdRnvBJXF1sW-129">
          <mxGeometry relative="1" as="geometry" />
        </mxCell>
        <mxCell id="Eim88RMwKdRnvBJXF1sW-7" value="temperatura" style="whiteSpace=wrap;html=1;" vertex="1" parent="1">
          <mxGeometry x="280" y="390" width="80" height="40" as="geometry" />
        </mxCell>
        <mxCell id="Eim88RMwKdRnvBJXF1sW-14" style="edgeStyle=orthogonalEdgeStyle;rounded=0;orthogonalLoop=1;jettySize=auto;html=1;entryX=0.5;entryY=0;entryDx=0;entryDy=0;" edge="1" parent="1" source="Eim88RMwKdRnvBJXF1sW-11" target="Eim88RMwKdRnvBJXF1sW-13">
          <mxGeometry relative="1" as="geometry" />
        </mxCell>
        <mxCell id="Eim88RMwKdRnvBJXF1sW-11" value="Inicio" style="ellipse;whiteSpace=wrap;html=1;" vertex="1" parent="1">
          <mxGeometry x="470" y="70" width="60" height="60" as="geometry" />
        </mxCell>
        <mxCell id="Eim88RMwKdRnvBJXF1sW-12" value="Programación de horarios" style="text;html=1;align=center;verticalAlign=middle;whiteSpace=wrap;rounded=0;" vertex="1" parent="1">
          <mxGeometry x="470" y="25" width="60" height="30" as="geometry" />
        </mxCell>
        <mxCell id="Eim88RMwKdRnvBJXF1sW-16" value="" style="edgeStyle=orthogonalEdgeStyle;rounded=0;orthogonalLoop=1;jettySize=auto;html=1;" edge="1" parent="1" source="Eim88RMwKdRnvBJXF1sW-13" target="Eim88RMwKdRnvBJXF1sW-15">
          <mxGeometry relative="1" as="geometry" />
        </mxCell>
        <mxCell id="Eim88RMwKdRnvBJXF1sW-13" value="&lt;br&gt;&lt;span style=&quot;color: rgb(0, 0, 0); font-family: Helvetica; font-size: 12px; font-style: normal; font-variant-ligatures: normal; font-variant-caps: normal; font-weight: 400; letter-spacing: normal; orphans: 2; text-align: center; text-indent: 0px; text-transform: none; widows: 2; word-spacing: 0px; -webkit-text-stroke-width: 0px; white-space: normal; background-color: rgb(251, 251, 251); text-decoration-thickness: initial; text-decoration-style: initial; text-decoration-color: initial; display: inline !important; float: none;&quot;&gt;&quot;Seleccionar zona:&amp;nbsp;&lt;/span&gt;&quot;&lt;div&gt;&lt;br&gt;&lt;/div&gt;" style="shape=parallelogram;perimeter=parallelogramPerimeter;whiteSpace=wrap;html=1;fixedSize=1;" vertex="1" parent="1">
          <mxGeometry x="432.5" y="150" width="135" height="60" as="geometry" />
        </mxCell>
        <mxCell id="Eim88RMwKdRnvBJXF1sW-18" value="" style="edgeStyle=orthogonalEdgeStyle;rounded=0;orthogonalLoop=1;jettySize=auto;html=1;" edge="1" parent="1" source="Eim88RMwKdRnvBJXF1sW-15" target="Eim88RMwKdRnvBJXF1sW-17">
          <mxGeometry relative="1" as="geometry" />
        </mxCell>
        <mxCell id="Eim88RMwKdRnvBJXF1sW-15" value="zona" style="whiteSpace=wrap;html=1;" vertex="1" parent="1">
          <mxGeometry x="450" y="235" width="100" height="40" as="geometry" />
        </mxCell>
        <mxCell id="Eim88RMwKdRnvBJXF1sW-89" value="" style="edgeStyle=orthogonalEdgeStyle;rounded=0;orthogonalLoop=1;jettySize=auto;html=1;" edge="1" parent="1" source="Eim88RMwKdRnvBJXF1sW-17" target="Eim88RMwKdRnvBJXF1sW-88">
          <mxGeometry relative="1" as="geometry" />
        </mxCell>
        <mxCell id="Eim88RMwKdRnvBJXF1sW-17" value="&quot;Seleccione horario inicio&quot;" style="shape=parallelogram;perimeter=parallelogramPerimeter;whiteSpace=wrap;html=1;fixedSize=1;" vertex="1" parent="1">
          <mxGeometry x="450" y="300" width="100" height="60" as="geometry" />
        </mxCell>
        <mxCell id="Eim88RMwKdRnvBJXF1sW-29" value="" style="edgeStyle=orthogonalEdgeStyle;rounded=0;orthogonalLoop=1;jettySize=auto;html=1;" edge="1" parent="1" source="Eim88RMwKdRnvBJXF1sW-26" target="Eim88RMwKdRnvBJXF1sW-28">
          <mxGeometry relative="1" as="geometry" />
        </mxCell>
        <mxCell id="Eim88RMwKdRnvBJXF1sW-26" value="Inicio" style="ellipse;whiteSpace=wrap;html=1;" vertex="1" parent="1">
          <mxGeometry x="650" y="70" width="60" height="60" as="geometry" />
        </mxCell>
        <mxCell id="Eim88RMwKdRnvBJXF1sW-27" value="Sensores de temperatura" style="text;html=1;align=center;verticalAlign=middle;whiteSpace=wrap;rounded=0;" vertex="1" parent="1">
          <mxGeometry x="650" y="25" width="60" height="30" as="geometry" />
        </mxCell>
        <mxCell id="Eim88RMwKdRnvBJXF1sW-33" value="" style="edgeStyle=orthogonalEdgeStyle;rounded=0;orthogonalLoop=1;jettySize=auto;html=1;" edge="1" parent="1" source="Eim88RMwKdRnvBJXF1sW-36" target="Eim88RMwKdRnvBJXF1sW-32">
          <mxGeometry relative="1" as="geometry" />
        </mxCell>
        <mxCell id="Eim88RMwKdRnvBJXF1sW-28" value="Temperatura" style="whiteSpace=wrap;html=1;" vertex="1" parent="1">
          <mxGeometry x="620" y="160" width="120" height="60" as="geometry" />
        </mxCell>
        <mxCell id="Eim88RMwKdRnvBJXF1sW-35" value="" style="edgeStyle=orthogonalEdgeStyle;rounded=0;orthogonalLoop=1;jettySize=auto;html=1;" edge="1" parent="1" source="Eim88RMwKdRnvBJXF1sW-32" target="Eim88RMwKdRnvBJXF1sW-34">
          <mxGeometry relative="1" as="geometry" />
        </mxCell>
        <mxCell id="Eim88RMwKdRnvBJXF1sW-39" value="" style="edgeStyle=orthogonalEdgeStyle;rounded=0;orthogonalLoop=1;jettySize=auto;html=1;" edge="1" parent="1" source="Eim88RMwKdRnvBJXF1sW-32" target="Eim88RMwKdRnvBJXF1sW-38">
          <mxGeometry relative="1" as="geometry" />
        </mxCell>
        <mxCell id="Eim88RMwKdRnvBJXF1sW-40" value="No" style="edgeLabel;html=1;align=center;verticalAlign=middle;resizable=0;points=[];" vertex="1" connectable="0" parent="Eim88RMwKdRnvBJXF1sW-39">
          <mxGeometry x="-0.1667" y="-1" relative="1" as="geometry">
            <mxPoint as="offset" />
          </mxGeometry>
        </mxCell>
        <mxCell id="Eim88RMwKdRnvBJXF1sW-32" value="&lt;font style=&quot;font-size: 12px;&quot;&gt;temp=&lt;span style=&quot;color: rgb(32, 33, 36); font-family: &amp;quot;Google Sans&amp;quot;, arial, sans-serif; text-align: left; background-color: rgb(255, 255, 255);&quot;&gt;21&lt;/span&gt;&lt;/font&gt;" style="rhombus;whiteSpace=wrap;html=1;" vertex="1" parent="1">
          <mxGeometry x="640" y="290" width="80" height="80" as="geometry" />
        </mxCell>
        <mxCell id="Eim88RMwKdRnvBJXF1sW-132" value="" style="edgeStyle=orthogonalEdgeStyle;rounded=0;orthogonalLoop=1;jettySize=auto;html=1;" edge="1" parent="1" source="Eim88RMwKdRnvBJXF1sW-34" target="Eim88RMwKdRnvBJXF1sW-131">
          <mxGeometry relative="1" as="geometry" />
        </mxCell>
        <mxCell id="Eim88RMwKdRnvBJXF1sW-34" value="temp=temp" style="whiteSpace=wrap;html=1;" vertex="1" parent="1">
          <mxGeometry x="640" y="410" width="80" height="60" as="geometry" />
        </mxCell>
        <mxCell id="Eim88RMwKdRnvBJXF1sW-37" value="" style="edgeStyle=orthogonalEdgeStyle;rounded=0;orthogonalLoop=1;jettySize=auto;html=1;" edge="1" parent="1" source="Eim88RMwKdRnvBJXF1sW-28" target="Eim88RMwKdRnvBJXF1sW-36">
          <mxGeometry relative="1" as="geometry">
            <mxPoint x="680" y="220" as="sourcePoint" />
            <mxPoint x="680" y="290" as="targetPoint" />
          </mxGeometry>
        </mxCell>
        <mxCell id="Eim88RMwKdRnvBJXF1sW-36" value="Si" style="text;html=1;align=center;verticalAlign=middle;whiteSpace=wrap;rounded=0;" vertex="1" parent="1">
          <mxGeometry x="650" y="235" width="60" height="30" as="geometry" />
        </mxCell>
        <mxCell id="Eim88RMwKdRnvBJXF1sW-133" style="edgeStyle=orthogonalEdgeStyle;rounded=0;orthogonalLoop=1;jettySize=auto;html=1;entryX=1;entryY=0.5;entryDx=0;entryDy=0;" edge="1" parent="1" source="Eim88RMwKdRnvBJXF1sW-38" target="Eim88RMwKdRnvBJXF1sW-131">
          <mxGeometry relative="1" as="geometry">
            <Array as="points">
              <mxPoint x="790" y="580" />
            </Array>
          </mxGeometry>
        </mxCell>
        <mxCell id="Eim88RMwKdRnvBJXF1sW-38" value="Temp&amp;nbsp;&lt;div&gt;==&lt;div&gt;&amp;nbsp;21&lt;/div&gt;&lt;/div&gt;" style="whiteSpace=wrap;html=1;" vertex="1" parent="1">
          <mxGeometry x="770" y="300" width="43" height="60" as="geometry" />
        </mxCell>
        <mxCell id="Eim88RMwKdRnvBJXF1sW-44" value="" style="edgeStyle=orthogonalEdgeStyle;rounded=0;orthogonalLoop=1;jettySize=auto;html=1;" edge="1" parent="1" source="Eim88RMwKdRnvBJXF1sW-41" target="Eim88RMwKdRnvBJXF1sW-45">
          <mxGeometry relative="1" as="geometry">
            <mxPoint x="920" y="150" as="targetPoint" />
          </mxGeometry>
        </mxCell>
        <mxCell id="Eim88RMwKdRnvBJXF1sW-41" value="Inicio" style="ellipse;whiteSpace=wrap;html=1;" vertex="1" parent="1">
          <mxGeometry x="890" y="70" width="60" height="60" as="geometry" />
        </mxCell>
        <mxCell id="Eim88RMwKdRnvBJXF1sW-42" value="Interfaz amigable" style="text;html=1;align=center;verticalAlign=middle;whiteSpace=wrap;rounded=0;" vertex="1" parent="1">
          <mxGeometry x="890" y="25" width="60" height="30" as="geometry" />
        </mxCell>
        <mxCell id="Eim88RMwKdRnvBJXF1sW-48" value="" style="edgeStyle=orthogonalEdgeStyle;rounded=0;orthogonalLoop=1;jettySize=auto;html=1;" edge="1" parent="1" source="Eim88RMwKdRnvBJXF1sW-45" target="Eim88RMwKdRnvBJXF1sW-47">
          <mxGeometry relative="1" as="geometry" />
        </mxCell>
        <mxCell id="Eim88RMwKdRnvBJXF1sW-45" value="&quot;Selecciona una opción:&amp;nbsp;&lt;div&gt;&lt;br&gt;&lt;/div&gt;&lt;div&gt;1)Configuración de&amp;nbsp;&lt;div&gt;Zonas de temperatura&lt;div&gt;2) Control de temperatura&amp;nbsp;&lt;/div&gt;&lt;div&gt;por&amp;nbsp;&lt;span style=&quot;background-color: initial;&quot;&gt;zonas&lt;/span&gt;&lt;/div&gt;&lt;div&gt;3) Programación de&amp;nbsp;&lt;/div&gt;&lt;div&gt;horarios&lt;/div&gt;&lt;/div&gt;&lt;div&gt;4)Sensores de&amp;nbsp;&lt;/div&gt;&lt;div&gt;temperatura&lt;/div&gt;&lt;div&gt;5) Optimización de&amp;nbsp;&lt;/div&gt;&lt;div&gt;energía&lt;/div&gt;&lt;div&gt;6) Registro de datos&lt;/div&gt;&lt;div&gt;&amp;nbsp;y reportes&lt;/div&gt;&lt;div&gt;7) Seguridad y validación&amp;nbsp;&lt;/div&gt;&lt;div&gt;de datos&lt;/div&gt;&lt;div&gt;8) Salir&lt;/div&gt;&lt;/div&gt;&lt;div&gt;&lt;br&gt;&lt;/div&gt;&lt;div&gt;&quot;&lt;/div&gt;" style="shape=parallelogram;perimeter=parallelogramPerimeter;whiteSpace=wrap;html=1;fixedSize=1;" vertex="1" parent="1">
          <mxGeometry x="830" y="160" width="180" height="325" as="geometry" />
        </mxCell>
        <mxCell id="Eim88RMwKdRnvBJXF1sW-135" value="" style="edgeStyle=orthogonalEdgeStyle;rounded=0;orthogonalLoop=1;jettySize=auto;html=1;" edge="1" parent="1" source="Eim88RMwKdRnvBJXF1sW-47" target="Eim88RMwKdRnvBJXF1sW-134">
          <mxGeometry relative="1" as="geometry" />
        </mxCell>
        <mxCell id="Eim88RMwKdRnvBJXF1sW-47" value="opcion" style="whiteSpace=wrap;html=1;" vertex="1" parent="1">
          <mxGeometry x="875" y="510" width="90" height="40" as="geometry" />
        </mxCell>
        <mxCell id="Eim88RMwKdRnvBJXF1sW-52" value="" style="edgeStyle=orthogonalEdgeStyle;rounded=0;orthogonalLoop=1;jettySize=auto;html=1;" edge="1" parent="1" source="Eim88RMwKdRnvBJXF1sW-49" target="Eim88RMwKdRnvBJXF1sW-51">
          <mxGeometry relative="1" as="geometry" />
        </mxCell>
        <mxCell id="Eim88RMwKdRnvBJXF1sW-49" value="Inicio" style="ellipse;whiteSpace=wrap;html=1;" vertex="1" parent="1">
          <mxGeometry x="1090" y="70" width="60" height="60" as="geometry" />
        </mxCell>
        <mxCell id="Eim88RMwKdRnvBJXF1sW-50" value="Optimización de energía" style="text;html=1;align=center;verticalAlign=middle;whiteSpace=wrap;rounded=0;" vertex="1" parent="1">
          <mxGeometry x="1090" y="25" width="60" height="30" as="geometry" />
        </mxCell>
        <mxCell id="Eim88RMwKdRnvBJXF1sW-170" value="" style="edgeStyle=orthogonalEdgeStyle;rounded=0;orthogonalLoop=1;jettySize=auto;html=1;" edge="1" parent="1" source="Eim88RMwKdRnvBJXF1sW-51" target="Eim88RMwKdRnvBJXF1sW-169">
          <mxGeometry relative="1" as="geometry" />
        </mxCell>
        <mxCell id="Eim88RMwKdRnvBJXF1sW-51" value="zona" style="whiteSpace=wrap;html=1;" vertex="1" parent="1">
          <mxGeometry x="1080" y="155" width="80" height="60" as="geometry" />
        </mxCell>
        <mxCell id="Eim88RMwKdRnvBJXF1sW-56" value="" style="edgeStyle=orthogonalEdgeStyle;rounded=0;orthogonalLoop=1;jettySize=auto;html=1;" edge="1" parent="1" source="Eim88RMwKdRnvBJXF1sW-53" target="Eim88RMwKdRnvBJXF1sW-57">
          <mxGeometry relative="1" as="geometry">
            <mxPoint x="1320" y="210" as="targetPoint" />
          </mxGeometry>
        </mxCell>
        <mxCell id="Eim88RMwKdRnvBJXF1sW-53" value="Inicio" style="ellipse;whiteSpace=wrap;html=1;" vertex="1" parent="1">
          <mxGeometry x="1290" y="70" width="60" height="60" as="geometry" />
        </mxCell>
        <mxCell id="Eim88RMwKdRnvBJXF1sW-54" value="Registro de datos y reportes" style="text;html=1;align=center;verticalAlign=middle;whiteSpace=wrap;rounded=0;" vertex="1" parent="1">
          <mxGeometry x="1290" y="25" width="60" height="30" as="geometry" />
        </mxCell>
        <mxCell id="Eim88RMwKdRnvBJXF1sW-112" value="" style="edgeStyle=orthogonalEdgeStyle;rounded=0;orthogonalLoop=1;jettySize=auto;html=1;" edge="1" parent="1" source="Eim88RMwKdRnvBJXF1sW-57" target="Eim88RMwKdRnvBJXF1sW-111">
          <mxGeometry relative="1" as="geometry" />
        </mxCell>
        <mxCell id="Eim88RMwKdRnvBJXF1sW-57" value="Zona" style="rounded=0;whiteSpace=wrap;html=1;" vertex="1" parent="1">
          <mxGeometry x="1280" y="155" width="80" height="60" as="geometry" />
        </mxCell>
        <mxCell id="Eim88RMwKdRnvBJXF1sW-148" value="" style="edgeStyle=orthogonalEdgeStyle;rounded=0;orthogonalLoop=1;jettySize=auto;html=1;" edge="1" parent="1" source="Eim88RMwKdRnvBJXF1sW-59" target="Eim88RMwKdRnvBJXF1sW-147">
          <mxGeometry relative="1" as="geometry" />
        </mxCell>
        <mxCell id="Eim88RMwKdRnvBJXF1sW-59" value="Inicio" style="ellipse;whiteSpace=wrap;html=1;" vertex="1" parent="1">
          <mxGeometry x="1529" y="70" width="60" height="60" as="geometry" />
        </mxCell>
        <mxCell id="Eim88RMwKdRnvBJXF1sW-60" value="Seguridad y validación de datos" style="text;html=1;align=center;verticalAlign=middle;whiteSpace=wrap;rounded=0;" vertex="1" parent="1">
          <mxGeometry x="1509" y="25" width="100" height="30" as="geometry" />
        </mxCell>
        <mxCell id="Eim88RMwKdRnvBJXF1sW-71" value="" style="edgeStyle=orthogonalEdgeStyle;rounded=0;orthogonalLoop=1;jettySize=auto;html=1;" edge="1" parent="1" source="Eim88RMwKdRnvBJXF1sW-68" target="Eim88RMwKdRnvBJXF1sW-70">
          <mxGeometry relative="1" as="geometry" />
        </mxCell>
        <mxCell id="Eim88RMwKdRnvBJXF1sW-68" value="zona" style="whiteSpace=wrap;html=1;" vertex="1" parent="1">
          <mxGeometry x="85" y="240" width="70" height="30" as="geometry" />
        </mxCell>
        <mxCell id="Eim88RMwKdRnvBJXF1sW-75" value="" style="edgeStyle=orthogonalEdgeStyle;rounded=0;orthogonalLoop=1;jettySize=auto;html=1;" edge="1" parent="1" source="Eim88RMwKdRnvBJXF1sW-70" target="Eim88RMwKdRnvBJXF1sW-74">
          <mxGeometry relative="1" as="geometry" />
        </mxCell>
        <mxCell id="Eim88RMwKdRnvBJXF1sW-70" value="&quot;Definir temperatura deseada&quot;" style="shape=parallelogram;perimeter=parallelogramPerimeter;whiteSpace=wrap;html=1;fixedSize=1;" vertex="1" parent="1">
          <mxGeometry x="40" y="310" width="160" height="60" as="geometry" />
        </mxCell>
        <mxCell id="Eim88RMwKdRnvBJXF1sW-77" value="" style="edgeStyle=orthogonalEdgeStyle;rounded=0;orthogonalLoop=1;jettySize=auto;html=1;" edge="1" parent="1" source="Eim88RMwKdRnvBJXF1sW-74" target="Eim88RMwKdRnvBJXF1sW-76">
          <mxGeometry relative="1" as="geometry" />
        </mxCell>
        <mxCell id="Eim88RMwKdRnvBJXF1sW-74" value="temperatura" style="whiteSpace=wrap;html=1;" vertex="1" parent="1">
          <mxGeometry x="75" y="400" width="90" height="40" as="geometry" />
        </mxCell>
        <mxCell id="Eim88RMwKdRnvBJXF1sW-79" value="" style="edgeStyle=orthogonalEdgeStyle;rounded=0;orthogonalLoop=1;jettySize=auto;html=1;" edge="1" parent="1" source="Eim88RMwKdRnvBJXF1sW-76" target="Eim88RMwKdRnvBJXF1sW-78">
          <mxGeometry relative="1" as="geometry" />
        </mxCell>
        <mxCell id="Eim88RMwKdRnvBJXF1sW-80" value="Si" style="edgeLabel;html=1;align=center;verticalAlign=middle;resizable=0;points=[];" vertex="1" connectable="0" parent="Eim88RMwKdRnvBJXF1sW-79">
          <mxGeometry x="0.2372" y="2" relative="1" as="geometry">
            <mxPoint as="offset" />
          </mxGeometry>
        </mxCell>
        <mxCell id="Eim88RMwKdRnvBJXF1sW-76" value="&quot;¿Desea agregar&amp;nbsp;&lt;div&gt;otra zona?&quot;&lt;/div&gt;" style="shape=parallelogram;perimeter=parallelogramPerimeter;whiteSpace=wrap;html=1;fixedSize=1;" vertex="1" parent="1">
          <mxGeometry x="60" y="470" width="120" height="60" as="geometry" />
        </mxCell>
        <mxCell id="Eim88RMwKdRnvBJXF1sW-85" value="" style="edgeStyle=orthogonalEdgeStyle;rounded=0;orthogonalLoop=1;jettySize=auto;html=1;" edge="1" parent="1" source="Eim88RMwKdRnvBJXF1sW-78" target="Eim88RMwKdRnvBJXF1sW-84">
          <mxGeometry relative="1" as="geometry" />
        </mxCell>
        <mxCell id="Eim88RMwKdRnvBJXF1sW-86" value="No" style="edgeLabel;html=1;align=center;verticalAlign=middle;resizable=0;points=[];" vertex="1" connectable="0" parent="Eim88RMwKdRnvBJXF1sW-85">
          <mxGeometry x="-0.2641" y="3" relative="1" as="geometry">
            <mxPoint as="offset" />
          </mxGeometry>
        </mxCell>
        <mxCell id="Eim88RMwKdRnvBJXF1sW-78" value="Sí" style="rhombus;whiteSpace=wrap;html=1;" vertex="1" parent="1">
          <mxGeometry x="80" y="580" width="80" height="80" as="geometry" />
        </mxCell>
        <mxCell id="Eim88RMwKdRnvBJXF1sW-84" value="Fin" style="ellipse;whiteSpace=wrap;html=1;" vertex="1" parent="1">
          <mxGeometry x="220" y="590" width="60" height="60" as="geometry" />
        </mxCell>
        <mxCell id="Eim88RMwKdRnvBJXF1sW-87" value="" style="endArrow=classic;html=1;rounded=0;exitX=0;exitY=0.5;exitDx=0;exitDy=0;entryX=0;entryY=0.5;entryDx=0;entryDy=0;" edge="1" parent="1" source="Eim88RMwKdRnvBJXF1sW-78" target="87rC7KkqDMifivqr5Y0W-3">
          <mxGeometry width="50" height="50" relative="1" as="geometry">
            <mxPoint x="230" y="330" as="sourcePoint" />
            <mxPoint x="280" y="280" as="targetPoint" />
            <Array as="points">
              <mxPoint x="20" y="620" />
              <mxPoint x="20" y="180" />
            </Array>
          </mxGeometry>
        </mxCell>
        <mxCell id="Eim88RMwKdRnvBJXF1sW-91" value="" style="edgeStyle=orthogonalEdgeStyle;rounded=0;orthogonalLoop=1;jettySize=auto;html=1;" edge="1" parent="1" source="Eim88RMwKdRnvBJXF1sW-88" target="Eim88RMwKdRnvBJXF1sW-90">
          <mxGeometry relative="1" as="geometry" />
        </mxCell>
        <mxCell id="Eim88RMwKdRnvBJXF1sW-88" value="HoraInicio" style="whiteSpace=wrap;html=1;" vertex="1" parent="1">
          <mxGeometry x="450" y="390" width="100" height="40" as="geometry" />
        </mxCell>
        <mxCell id="Eim88RMwKdRnvBJXF1sW-94" value="" style="edgeStyle=orthogonalEdgeStyle;rounded=0;orthogonalLoop=1;jettySize=auto;html=1;" edge="1" parent="1" source="Eim88RMwKdRnvBJXF1sW-90" target="Eim88RMwKdRnvBJXF1sW-93">
          <mxGeometry relative="1" as="geometry" />
        </mxCell>
        <mxCell id="Eim88RMwKdRnvBJXF1sW-90" value="&quot;Seleccione&amp;nbsp;&lt;div&gt;horario final&quot;&lt;/div&gt;" style="shape=parallelogram;perimeter=parallelogramPerimeter;whiteSpace=wrap;html=1;fixedSize=1;" vertex="1" parent="1">
          <mxGeometry x="440" y="460" width="120" height="60" as="geometry" />
        </mxCell>
        <mxCell id="Eim88RMwKdRnvBJXF1sW-96" value="" style="edgeStyle=orthogonalEdgeStyle;rounded=0;orthogonalLoop=1;jettySize=auto;html=1;" edge="1" parent="1" source="Eim88RMwKdRnvBJXF1sW-93" target="Eim88RMwKdRnvBJXF1sW-95">
          <mxGeometry relative="1" as="geometry" />
        </mxCell>
        <mxCell id="Eim88RMwKdRnvBJXF1sW-93" value="Horafinal" style="whiteSpace=wrap;html=1;" vertex="1" parent="1">
          <mxGeometry x="450" y="540" width="100" height="50" as="geometry" />
        </mxCell>
        <mxCell id="Eim88RMwKdRnvBJXF1sW-98" value="" style="edgeStyle=orthogonalEdgeStyle;rounded=0;orthogonalLoop=1;jettySize=auto;html=1;" edge="1" parent="1" source="Eim88RMwKdRnvBJXF1sW-95" target="Eim88RMwKdRnvBJXF1sW-97">
          <mxGeometry relative="1" as="geometry" />
        </mxCell>
        <mxCell id="Eim88RMwKdRnvBJXF1sW-95" value="&quot;Seleccione temperatura&quot;" style="shape=parallelogram;perimeter=parallelogramPerimeter;whiteSpace=wrap;html=1;fixedSize=1;" vertex="1" parent="1">
          <mxGeometry x="440" y="610" width="120" height="60" as="geometry" />
        </mxCell>
        <mxCell id="Eim88RMwKdRnvBJXF1sW-102" value="" style="edgeStyle=orthogonalEdgeStyle;rounded=0;orthogonalLoop=1;jettySize=auto;html=1;" edge="1" parent="1" source="Eim88RMwKdRnvBJXF1sW-97" target="Eim88RMwKdRnvBJXF1sW-101">
          <mxGeometry relative="1" as="geometry" />
        </mxCell>
        <mxCell id="Eim88RMwKdRnvBJXF1sW-97" value="temperatura" style="whiteSpace=wrap;html=1;" vertex="1" parent="1">
          <mxGeometry x="455" y="700" width="90" height="50" as="geometry" />
        </mxCell>
        <mxCell id="Eim88RMwKdRnvBJXF1sW-104" value="" style="edgeStyle=orthogonalEdgeStyle;rounded=0;orthogonalLoop=1;jettySize=auto;html=1;" edge="1" parent="1" source="Eim88RMwKdRnvBJXF1sW-101" target="Eim88RMwKdRnvBJXF1sW-103">
          <mxGeometry relative="1" as="geometry" />
        </mxCell>
        <mxCell id="Eim88RMwKdRnvBJXF1sW-105" value="si" style="edgeLabel;html=1;align=center;verticalAlign=middle;resizable=0;points=[];" vertex="1" connectable="0" parent="Eim88RMwKdRnvBJXF1sW-104">
          <mxGeometry x="-0.5111" y="2" relative="1" as="geometry">
            <mxPoint as="offset" />
          </mxGeometry>
        </mxCell>
        <mxCell id="Eim88RMwKdRnvBJXF1sW-101" value="&quot;¿Desea agregar&amp;nbsp;&lt;div&gt;otro horario?&quot;&lt;/div&gt;" style="shape=parallelogram;perimeter=parallelogramPerimeter;whiteSpace=wrap;html=1;fixedSize=1;" vertex="1" parent="1">
          <mxGeometry x="440" y="770" width="120" height="60" as="geometry" />
        </mxCell>
        <mxCell id="Eim88RMwKdRnvBJXF1sW-107" value="" style="edgeStyle=orthogonalEdgeStyle;rounded=0;orthogonalLoop=1;jettySize=auto;html=1;" edge="1" parent="1" source="Eim88RMwKdRnvBJXF1sW-103" target="Eim88RMwKdRnvBJXF1sW-106">
          <mxGeometry relative="1" as="geometry" />
        </mxCell>
        <mxCell id="Eim88RMwKdRnvBJXF1sW-109" value="No" style="edgeLabel;html=1;align=center;verticalAlign=middle;resizable=0;points=[];" vertex="1" connectable="0" parent="Eim88RMwKdRnvBJXF1sW-107">
          <mxGeometry x="-0.225" y="-2" relative="1" as="geometry">
            <mxPoint as="offset" />
          </mxGeometry>
        </mxCell>
        <mxCell id="Eim88RMwKdRnvBJXF1sW-103" value="Sí" style="rhombus;whiteSpace=wrap;html=1;" vertex="1" parent="1">
          <mxGeometry x="460" y="880" width="80" height="80" as="geometry" />
        </mxCell>
        <mxCell id="Eim88RMwKdRnvBJXF1sW-106" value="Fin" style="ellipse;whiteSpace=wrap;html=1;" vertex="1" parent="1">
          <mxGeometry x="620" y="880" width="80" height="80" as="geometry" />
        </mxCell>
        <mxCell id="Eim88RMwKdRnvBJXF1sW-110" value="" style="endArrow=classic;html=1;rounded=0;exitX=0;exitY=0.5;exitDx=0;exitDy=0;entryX=0;entryY=0.5;entryDx=0;entryDy=0;" edge="1" parent="1" source="Eim88RMwKdRnvBJXF1sW-103" target="Eim88RMwKdRnvBJXF1sW-13">
          <mxGeometry width="50" height="50" relative="1" as="geometry">
            <mxPoint x="550" y="660" as="sourcePoint" />
            <mxPoint x="600" y="610" as="targetPoint" />
            <Array as="points">
              <mxPoint x="420" y="920" />
              <mxPoint x="430" y="180" />
            </Array>
          </mxGeometry>
        </mxCell>
        <mxCell id="Eim88RMwKdRnvBJXF1sW-114" value="" style="edgeStyle=orthogonalEdgeStyle;rounded=0;orthogonalLoop=1;jettySize=auto;html=1;" edge="1" parent="1" source="Eim88RMwKdRnvBJXF1sW-111" target="Eim88RMwKdRnvBJXF1sW-113">
          <mxGeometry relative="1" as="geometry" />
        </mxCell>
        <mxCell id="Eim88RMwKdRnvBJXF1sW-111" value="historial" style="rounded=0;whiteSpace=wrap;html=1;" vertex="1" parent="1">
          <mxGeometry x="1280" y="235" width="80" height="60" as="geometry" />
        </mxCell>
        <mxCell id="Eim88RMwKdRnvBJXF1sW-116" value="" style="edgeStyle=orthogonalEdgeStyle;rounded=0;orthogonalLoop=1;jettySize=auto;html=1;" edge="1" parent="1" source="Eim88RMwKdRnvBJXF1sW-113" target="Eim88RMwKdRnvBJXF1sW-115">
          <mxGeometry relative="1" as="geometry" />
        </mxCell>
        <mxCell id="Eim88RMwKdRnvBJXF1sW-117" value="Si" style="edgeLabel;html=1;align=center;verticalAlign=middle;resizable=0;points=[];" vertex="1" connectable="0" parent="Eim88RMwKdRnvBJXF1sW-116">
          <mxGeometry x="-0.415" y="1" relative="1" as="geometry">
            <mxPoint as="offset" />
          </mxGeometry>
        </mxCell>
        <mxCell id="Eim88RMwKdRnvBJXF1sW-113" value="&quot;¿Visualizar&amp;nbsp;&lt;div&gt;historial?&quot;&lt;/div&gt;" style="shape=parallelogram;perimeter=parallelogramPerimeter;whiteSpace=wrap;html=1;fixedSize=1;rounded=0;" vertex="1" parent="1">
          <mxGeometry x="1260" y="320" width="120" height="60" as="geometry" />
        </mxCell>
        <mxCell id="Eim88RMwKdRnvBJXF1sW-119" value="" style="edgeStyle=orthogonalEdgeStyle;rounded=0;orthogonalLoop=1;jettySize=auto;html=1;" edge="1" parent="1" source="Eim88RMwKdRnvBJXF1sW-115" target="Eim88RMwKdRnvBJXF1sW-118">
          <mxGeometry relative="1" as="geometry" />
        </mxCell>
        <mxCell id="Eim88RMwKdRnvBJXF1sW-124" value="No" style="edgeLabel;html=1;align=center;verticalAlign=middle;resizable=0;points=[];" vertex="1" connectable="0" parent="Eim88RMwKdRnvBJXF1sW-119">
          <mxGeometry x="0.0646" y="-1" relative="1" as="geometry">
            <mxPoint as="offset" />
          </mxGeometry>
        </mxCell>
        <mxCell id="Eim88RMwKdRnvBJXF1sW-123" value="" style="edgeStyle=orthogonalEdgeStyle;rounded=0;orthogonalLoop=1;jettySize=auto;html=1;" edge="1" parent="1" source="Eim88RMwKdRnvBJXF1sW-115" target="Eim88RMwKdRnvBJXF1sW-122">
          <mxGeometry relative="1" as="geometry" />
        </mxCell>
        <mxCell id="Eim88RMwKdRnvBJXF1sW-115" value="Sí" style="rhombus;whiteSpace=wrap;html=1;rounded=0;" vertex="1" parent="1">
          <mxGeometry x="1280" y="450" width="80" height="80" as="geometry" />
        </mxCell>
        <mxCell id="Eim88RMwKdRnvBJXF1sW-118" value="Fin" style="ellipse;whiteSpace=wrap;html=1;rounded=0;" vertex="1" parent="1">
          <mxGeometry x="1390" y="450" width="80" height="80" as="geometry" />
        </mxCell>
        <mxCell id="Eim88RMwKdRnvBJXF1sW-122" value="Historial" style="whiteSpace=wrap;html=1;rounded=0;" vertex="1" parent="1">
          <mxGeometry x="1280" y="550" width="80" height="40" as="geometry" />
        </mxCell>
        <mxCell id="Eim88RMwKdRnvBJXF1sW-137" value="" style="edgeStyle=orthogonalEdgeStyle;rounded=0;orthogonalLoop=1;jettySize=auto;html=1;" edge="1" parent="1" source="Eim88RMwKdRnvBJXF1sW-127" target="Eim88RMwKdRnvBJXF1sW-136">
          <mxGeometry relative="1" as="geometry" />
        </mxCell>
        <mxCell id="Eim88RMwKdRnvBJXF1sW-127" value="Inicio" style="ellipse;whiteSpace=wrap;html=1;" vertex="1" parent="1">
          <mxGeometry x="1769" y="70" width="60" height="60" as="geometry" />
        </mxCell>
        <mxCell id="Eim88RMwKdRnvBJXF1sW-128" value="Salir" style="text;html=1;align=center;verticalAlign=middle;whiteSpace=wrap;rounded=0;" vertex="1" parent="1">
          <mxGeometry x="1749" y="25" width="100" height="30" as="geometry" />
        </mxCell>
        <mxCell id="Eim88RMwKdRnvBJXF1sW-129" value="Fin" style="ellipse;whiteSpace=wrap;html=1;" vertex="1" parent="1">
          <mxGeometry x="280" y="490" width="80" height="80" as="geometry" />
        </mxCell>
        <mxCell id="Eim88RMwKdRnvBJXF1sW-131" value="Fin" style="ellipse;whiteSpace=wrap;html=1;" vertex="1" parent="1">
          <mxGeometry x="640" y="540" width="80" height="80" as="geometry" />
        </mxCell>
        <mxCell id="Eim88RMwKdRnvBJXF1sW-134" value="Fin" style="ellipse;whiteSpace=wrap;html=1;" vertex="1" parent="1">
          <mxGeometry x="880" y="610" width="80" height="80" as="geometry" />
        </mxCell>
        <mxCell id="Eim88RMwKdRnvBJXF1sW-139" value="" style="edgeStyle=orthogonalEdgeStyle;rounded=0;orthogonalLoop=1;jettySize=auto;html=1;" edge="1" parent="1" source="Eim88RMwKdRnvBJXF1sW-136" target="Eim88RMwKdRnvBJXF1sW-138">
          <mxGeometry relative="1" as="geometry" />
        </mxCell>
        <mxCell id="Eim88RMwKdRnvBJXF1sW-140" value="si" style="edgeLabel;html=1;align=center;verticalAlign=middle;resizable=0;points=[];" vertex="1" connectable="0" parent="Eim88RMwKdRnvBJXF1sW-139">
          <mxGeometry x="-0.341" relative="1" as="geometry">
            <mxPoint as="offset" />
          </mxGeometry>
        </mxCell>
        <mxCell id="Eim88RMwKdRnvBJXF1sW-136" value="&quot;Desea salir del programa?&quot;" style="shape=parallelogram;perimeter=parallelogramPerimeter;whiteSpace=wrap;html=1;fixedSize=1;" vertex="1" parent="1">
          <mxGeometry x="1739" y="210" width="120" height="60" as="geometry" />
        </mxCell>
        <mxCell id="Eim88RMwKdRnvBJXF1sW-142" value="" style="edgeStyle=orthogonalEdgeStyle;rounded=0;orthogonalLoop=1;jettySize=auto;html=1;" edge="1" parent="1" source="Eim88RMwKdRnvBJXF1sW-138" target="Eim88RMwKdRnvBJXF1sW-141">
          <mxGeometry relative="1" as="geometry" />
        </mxCell>
        <mxCell id="Eim88RMwKdRnvBJXF1sW-144" value="" style="edgeStyle=orthogonalEdgeStyle;rounded=0;orthogonalLoop=1;jettySize=auto;html=1;" edge="1" parent="1" source="Eim88RMwKdRnvBJXF1sW-138" target="Eim88RMwKdRnvBJXF1sW-143">
          <mxGeometry relative="1" as="geometry" />
        </mxCell>
        <mxCell id="Eim88RMwKdRnvBJXF1sW-138" value="Sí" style="rhombus;whiteSpace=wrap;html=1;" vertex="1" parent="1">
          <mxGeometry x="1759" y="310" width="80" height="80" as="geometry" />
        </mxCell>
        <mxCell id="Eim88RMwKdRnvBJXF1sW-141" value="Fin" style="ellipse;whiteSpace=wrap;html=1;" vertex="1" parent="1">
          <mxGeometry x="1759" y="420" width="80" height="80" as="geometry" />
        </mxCell>
        <mxCell id="Eim88RMwKdRnvBJXF1sW-146" value="" style="edgeStyle=orthogonalEdgeStyle;rounded=0;orthogonalLoop=1;jettySize=auto;html=1;" edge="1" parent="1" source="Eim88RMwKdRnvBJXF1sW-143" target="Eim88RMwKdRnvBJXF1sW-145">
          <mxGeometry relative="1" as="geometry" />
        </mxCell>
        <mxCell id="Eim88RMwKdRnvBJXF1sW-143" value="no" style="whiteSpace=wrap;html=1;" vertex="1" parent="1">
          <mxGeometry x="1889" y="330" width="50" height="40" as="geometry" />
        </mxCell>
        <mxCell id="Eim88RMwKdRnvBJXF1sW-145" value="#Regresar al menú de inicio" style="whiteSpace=wrap;html=1;" vertex="1" parent="1">
          <mxGeometry x="1854" y="400" width="120" height="60" as="geometry" />
        </mxCell>
        <mxCell id="Eim88RMwKdRnvBJXF1sW-150" value="" style="edgeStyle=orthogonalEdgeStyle;rounded=0;orthogonalLoop=1;jettySize=auto;html=1;" edge="1" parent="1" source="Eim88RMwKdRnvBJXF1sW-147" target="Eim88RMwKdRnvBJXF1sW-149">
          <mxGeometry relative="1" as="geometry" />
        </mxCell>
        <mxCell id="Eim88RMwKdRnvBJXF1sW-147" value="zona" style="whiteSpace=wrap;html=1;" vertex="1" parent="1">
          <mxGeometry x="1514" y="155" width="90" height="50" as="geometry" />
        </mxCell>
        <mxCell id="Eim88RMwKdRnvBJXF1sW-152" value="" style="edgeStyle=orthogonalEdgeStyle;rounded=0;orthogonalLoop=1;jettySize=auto;html=1;" edge="1" parent="1" source="Eim88RMwKdRnvBJXF1sW-154" target="Eim88RMwKdRnvBJXF1sW-151">
          <mxGeometry relative="1" as="geometry" />
        </mxCell>
        <mxCell id="Eim88RMwKdRnvBJXF1sW-159" value="Si" style="edgeLabel;html=1;align=center;verticalAlign=middle;resizable=0;points=[];" vertex="1" connectable="0" parent="Eim88RMwKdRnvBJXF1sW-152">
          <mxGeometry x="-0.6246" relative="1" as="geometry">
            <mxPoint as="offset" />
          </mxGeometry>
        </mxCell>
        <mxCell id="Eim88RMwKdRnvBJXF1sW-155" value="" style="edgeStyle=orthogonalEdgeStyle;rounded=0;orthogonalLoop=1;jettySize=auto;html=1;" edge="1" parent="1" source="Eim88RMwKdRnvBJXF1sW-149" target="Eim88RMwKdRnvBJXF1sW-154">
          <mxGeometry relative="1" as="geometry" />
        </mxCell>
        <mxCell id="Eim88RMwKdRnvBJXF1sW-149" value="historial" style="whiteSpace=wrap;html=1;" vertex="1" parent="1">
          <mxGeometry x="1514" y="230" width="90" height="40" as="geometry" />
        </mxCell>
        <mxCell id="Eim88RMwKdRnvBJXF1sW-161" value="" style="edgeStyle=orthogonalEdgeStyle;rounded=0;orthogonalLoop=1;jettySize=auto;html=1;" edge="1" parent="1" source="Eim88RMwKdRnvBJXF1sW-151" target="Eim88RMwKdRnvBJXF1sW-160">
          <mxGeometry relative="1" as="geometry" />
        </mxCell>
        <mxCell id="Eim88RMwKdRnvBJXF1sW-165" value="" style="edgeStyle=orthogonalEdgeStyle;rounded=0;orthogonalLoop=1;jettySize=auto;html=1;" edge="1" parent="1" source="Eim88RMwKdRnvBJXF1sW-151" target="Eim88RMwKdRnvBJXF1sW-164">
          <mxGeometry relative="1" as="geometry" />
        </mxCell>
        <mxCell id="Eim88RMwKdRnvBJXF1sW-151" value="Temperatura&amp;nbsp;&lt;div&gt;segura&lt;/div&gt;" style="rhombus;whiteSpace=wrap;html=1;" vertex="1" parent="1">
          <mxGeometry x="1504" y="380" width="110" height="80" as="geometry" />
        </mxCell>
        <mxCell id="Eim88RMwKdRnvBJXF1sW-157" value="" style="edgeStyle=orthogonalEdgeStyle;rounded=0;orthogonalLoop=1;jettySize=auto;html=1;" edge="1" parent="1" source="Eim88RMwKdRnvBJXF1sW-149" target="Eim88RMwKdRnvBJXF1sW-154">
          <mxGeometry relative="1" as="geometry">
            <mxPoint x="1559" y="270" as="sourcePoint" />
            <mxPoint x="1559" y="380" as="targetPoint" />
          </mxGeometry>
        </mxCell>
        <mxCell id="Eim88RMwKdRnvBJXF1sW-154" value="temperatura" style="whiteSpace=wrap;html=1;" vertex="1" parent="1">
          <mxGeometry x="1514" y="290" width="90" height="50" as="geometry" />
        </mxCell>
        <mxCell id="Eim88RMwKdRnvBJXF1sW-168" style="edgeStyle=orthogonalEdgeStyle;rounded=0;orthogonalLoop=1;jettySize=auto;html=1;entryX=1;entryY=0.5;entryDx=0;entryDy=0;" edge="1" parent="1" source="Eim88RMwKdRnvBJXF1sW-160" target="Eim88RMwKdRnvBJXF1sW-166">
          <mxGeometry relative="1" as="geometry">
            <Array as="points">
              <mxPoint x="1679" y="600" />
            </Array>
          </mxGeometry>
        </mxCell>
        <mxCell id="Eim88RMwKdRnvBJXF1sW-160" value="Registrar ajuste seguro" style="whiteSpace=wrap;html=1;" vertex="1" parent="1">
          <mxGeometry x="1639" y="390" width="80" height="60" as="geometry" />
        </mxCell>
        <mxCell id="Eim88RMwKdRnvBJXF1sW-167" value="" style="edgeStyle=orthogonalEdgeStyle;rounded=0;orthogonalLoop=1;jettySize=auto;html=1;" edge="1" parent="1" source="Eim88RMwKdRnvBJXF1sW-164" target="Eim88RMwKdRnvBJXF1sW-166">
          <mxGeometry relative="1" as="geometry" />
        </mxCell>
        <mxCell id="Eim88RMwKdRnvBJXF1sW-164" value="&quot;Alerta,&amp;nbsp;&lt;div&gt;temperatura insegura&quot;&lt;/div&gt;" style="shape=parallelogram;perimeter=parallelogramPerimeter;whiteSpace=wrap;html=1;fixedSize=1;" vertex="1" parent="1">
          <mxGeometry x="1499" y="485" width="120" height="60" as="geometry" />
        </mxCell>
        <mxCell id="Eim88RMwKdRnvBJXF1sW-166" value="Fin" style="ellipse;whiteSpace=wrap;html=1;" vertex="1" parent="1">
          <mxGeometry x="1519" y="560" width="80" height="80" as="geometry" />
        </mxCell>
        <mxCell id="Eim88RMwKdRnvBJXF1sW-172" value="" style="edgeStyle=orthogonalEdgeStyle;rounded=0;orthogonalLoop=1;jettySize=auto;html=1;" edge="1" parent="1" source="Eim88RMwKdRnvBJXF1sW-169" target="Eim88RMwKdRnvBJXF1sW-171">
          <mxGeometry relative="1" as="geometry" />
        </mxCell>
        <mxCell id="Eim88RMwKdRnvBJXF1sW-173" value="si" style="edgeLabel;html=1;align=center;verticalAlign=middle;resizable=0;points=[];" vertex="1" connectable="0" parent="Eim88RMwKdRnvBJXF1sW-172">
          <mxGeometry x="-0.2816" y="4" relative="1" as="geometry">
            <mxPoint as="offset" />
          </mxGeometry>
        </mxCell>
        <mxCell id="Eim88RMwKdRnvBJXF1sW-169" value="horario" style="whiteSpace=wrap;html=1;" vertex="1" parent="1">
          <mxGeometry x="1080" y="235" width="80" height="60" as="geometry" />
        </mxCell>
        <mxCell id="Eim88RMwKdRnvBJXF1sW-176" value="" style="edgeStyle=orthogonalEdgeStyle;rounded=0;orthogonalLoop=1;jettySize=auto;html=1;" edge="1" parent="1" source="Eim88RMwKdRnvBJXF1sW-171" target="Eim88RMwKdRnvBJXF1sW-175">
          <mxGeometry relative="1" as="geometry" />
        </mxCell>
        <mxCell id="Eim88RMwKdRnvBJXF1sW-178" value="" style="edgeStyle=orthogonalEdgeStyle;rounded=0;orthogonalLoop=1;jettySize=auto;html=1;" edge="1" parent="1" source="Eim88RMwKdRnvBJXF1sW-171" target="Eim88RMwKdRnvBJXF1sW-177">
          <mxGeometry relative="1" as="geometry" />
        </mxCell>
        <mxCell id="Eim88RMwKdRnvBJXF1sW-179" value="No" style="edgeLabel;html=1;align=center;verticalAlign=middle;resizable=0;points=[];" vertex="1" connectable="0" parent="Eim88RMwKdRnvBJXF1sW-178">
          <mxGeometry x="-0.3439" y="3" relative="1" as="geometry">
            <mxPoint as="offset" />
          </mxGeometry>
        </mxCell>
        <mxCell id="Eim88RMwKdRnvBJXF1sW-171" value="Hay horario" style="rhombus;whiteSpace=wrap;html=1;" vertex="1" parent="1">
          <mxGeometry x="1080" y="365" width="80" height="80" as="geometry" />
        </mxCell>
        <mxCell id="Eim88RMwKdRnvBJXF1sW-181" value="" style="edgeStyle=orthogonalEdgeStyle;rounded=0;orthogonalLoop=1;jettySize=auto;html=1;" edge="1" parent="1" source="Eim88RMwKdRnvBJXF1sW-175" target="Eim88RMwKdRnvBJXF1sW-180">
          <mxGeometry relative="1" as="geometry" />
        </mxCell>
        <mxCell id="Eim88RMwKdRnvBJXF1sW-175" value="Mantener temperatura" style="whiteSpace=wrap;html=1;" vertex="1" parent="1">
          <mxGeometry x="1180" y="375" width="70" height="60" as="geometry" />
        </mxCell>
        <mxCell id="Eim88RMwKdRnvBJXF1sW-177" value="Ajustar temperatura a ambiente" style="whiteSpace=wrap;html=1;" vertex="1" parent="1">
          <mxGeometry x="1080" y="490" width="80" height="60" as="geometry" />
        </mxCell>
        <mxCell id="Eim88RMwKdRnvBJXF1sW-180" value="Fin" style="ellipse;whiteSpace=wrap;html=1;" vertex="1" parent="1">
          <mxGeometry x="1175" y="540" width="80" height="80" as="geometry" />
        </mxCell>
        <mxCell id="Eim88RMwKdRnvBJXF1sW-182" value="" style="endArrow=classic;html=1;rounded=0;exitX=0.5;exitY=1;exitDx=0;exitDy=0;entryX=0;entryY=0.5;entryDx=0;entryDy=0;" edge="1" parent="1" source="Eim88RMwKdRnvBJXF1sW-177" target="Eim88RMwKdRnvBJXF1sW-180">
          <mxGeometry width="50" height="50" relative="1" as="geometry">
            <mxPoint x="1310" y="320" as="sourcePoint" />
            <mxPoint x="1360" y="270" as="targetPoint" />
            <Array as="points">
              <mxPoint x="1120" y="580" />
            </Array>
          </mxGeometry>
        </mxCell>
      </root>
    </mxGraphModel>
  </diagram>
</mxfile>
